<?xml version="1.0" encoding="UTF-8" standalone="no"?><!DOCTYPE svg PUBLIC "-//W3C//DTD SVG 1.1//EN" "http://www.w3.org/Graphics/SVG/1.1/DTD/svg11.dtd"><!-- Generated by graphviz version 2.40.1 (20161225.0304)
 --><!-- Title: G Pages: 1 --><svg xmlns="http://www.w3.org/2000/svg" xmlns:xlink="http://www.w3.org/1999/xlink" width="1270pt" height="898pt" viewBox="0.00 0.00 1269.67 898.00">
<g id="graph0" class="graph" transform="scale(1 1) rotate(0) translate(36 862)">
<title>G</title>
<polygon fill="#f7f7f7" stroke="transparent" points="-36,36 -36,-862 1233.6718,-862 1233.6718,36 -36,36"/>
<!-- appmodelsmovimentacao -->
<g id="node1" class="node">
<title>appmodelsmovimentacao</title>
<polygon fill="none" stroke="#000000" points="212,-572 0,-572 0,-344 212,-344 212,-572"/>
<polygon fill="#d3d3d3" stroke="transparent" points="0,-534 0,-572 212,-572 212,-534 0,-534"/>
<polygon fill="none" stroke="#000000" points="0,-534 0,-572 212,-572 212,-534 0,-534"/>
<text text-anchor="start" x="60.493" y="-548.4" font-family="Helvetica Neue" font-size="14.00" fill="#333333">Movimentacao</text>
<polygon fill="#ffffff" stroke="transparent" points="0,-496 0,-534 212,-534 212,-496 0,-496"/>
<polygon fill="none" stroke="#000000" points="0,-496 0,-534 212,-534 212,-496 0,-496"/>
<text text-anchor="start" x="11" y="-510.4" font-family="Helvetica Neue" font-size="14.00" fill="#333333">id (integer)</text>
<polygon fill="#ffffff" stroke="transparent" points="0,-458 0,-496 212,-496 212,-458 0,-458"/>
<polygon fill="none" stroke="#000000" points="0,-458 0,-496 212,-496 212,-458 0,-458"/>
<text text-anchor="start" x="10.6999" y="-472.4" font-family="Helvetica Neue" font-size="14.00" fill="#333333">id_produto_composto (integer)</text>
<polygon fill="#ffffff" stroke="transparent" points="0,-420 0,-458 212,-458 212,-420 0,-420"/>
<polygon fill="none" stroke="#000000" points="0,-420 0,-458 212,-458 212,-420 0,-420"/>
<text text-anchor="start" x="11" y="-434.4" font-family="Helvetica Neue" font-size="14.00" fill="#333333">id_produto_simples (integer)</text>
<polygon fill="#ffffff" stroke="transparent" points="0,-382 0,-420 212,-420 212,-382 0,-382"/>
<polygon fill="none" stroke="#000000" points="0,-382 0,-420 212,-420 212,-382 0,-382"/>
<text text-anchor="start" x="11" y="-396.4" font-family="Helvetica Neue" font-size="14.00" fill="#333333">id_requisicao (integer)</text>
<polygon fill="#ffffff" stroke="transparent" points="0,-344 0,-382 212,-382 212,-344 0,-344"/>
<polygon fill="none" stroke="#000000" points="0,-344 0,-382 212,-382 212,-344 0,-344"/>
<text text-anchor="start" x="11" y="-358.4" font-family="Helvetica Neue" font-size="14.00" fill="#333333">quantidade (integer)</text>
</g>
<!-- appmodelsprodutocomposto -->
<g id="node2" class="node">
<title>appmodelsprodutocomposto</title>
<polygon fill="none" stroke="#000000" points="523.8906,-826 359.8906,-826 359.8906,-560 523.8906,-560 523.8906,-826"/>
<polygon fill="#d3d3d3" stroke="transparent" points="359.8906,-788 359.8906,-826 523.8906,-826 523.8906,-788 359.8906,-788"/>
<polygon fill="none" stroke="#000000" points="359.8906,-788 359.8906,-826 523.8906,-826 523.8906,-788 359.8906,-788"/>
<text text-anchor="start" x="385.4874" y="-802.4" font-family="Helvetica Neue" font-size="14.00" fill="#333333">ProdutoComposto</text>
<polygon fill="#ffffff" stroke="transparent" points="359.8906,-750 359.8906,-788 523.8906,-788 523.8906,-750 359.8906,-750"/>
<polygon fill="none" stroke="#000000" points="359.8906,-750 359.8906,-788 523.8906,-788 523.8906,-750 359.8906,-750"/>
<text text-anchor="start" x="370.8906" y="-764.4" font-family="Helvetica Neue" font-size="14.00" fill="#333333">id (integer)</text>
<polygon fill="#ffffff" stroke="transparent" points="359.8906,-712 359.8906,-750 523.8906,-750 523.8906,-712 359.8906,-712"/>
<polygon fill="none" stroke="#000000" points="359.8906,-712 359.8906,-750 523.8906,-750 523.8906,-712 359.8906,-712"/>
<text text-anchor="start" x="370.8906" y="-726.4" font-family="Helvetica Neue" font-size="14.00" fill="#333333">ativo (boolean)</text>
<polygon fill="#ffffff" stroke="transparent" points="359.8906,-674 359.8906,-712 523.8906,-712 523.8906,-674 359.8906,-674"/>
<polygon fill="none" stroke="#000000" points="359.8906,-674 359.8906,-712 523.8906,-712 523.8906,-674 359.8906,-674"/>
<text text-anchor="start" x="370.8906" y="-688.4" font-family="Helvetica Neue" font-size="14.00" fill="#333333">nome (string)</text>
<polygon fill="#ffffff" stroke="transparent" points="359.8906,-636 359.8906,-674 523.8906,-674 523.8906,-636 359.8906,-636"/>
<polygon fill="none" stroke="#000000" points="359.8906,-636 359.8906,-674 523.8906,-674 523.8906,-636 359.8906,-636"/>
<text text-anchor="start" x="370.7132" y="-650.4" font-family="Helvetica Neue" font-size="14.00" fill="#333333">preco_venda (decimal)</text>
<polygon fill="#ffffff" stroke="transparent" points="359.8906,-598 359.8906,-636 523.8906,-636 523.8906,-598 359.8906,-598"/>
<polygon fill="none" stroke="#000000" points="359.8906,-598 359.8906,-636 523.8906,-636 523.8906,-598 359.8906,-598"/>
<text text-anchor="start" x="370.8906" y="-612.4" font-family="Helvetica Neue" font-size="14.00" fill="#333333">created_at (datetime)</text>
<polygon fill="#ffffff" stroke="transparent" points="359.8906,-560 359.8906,-598 523.8906,-598 523.8906,-560 359.8906,-560"/>
<polygon fill="none" stroke="#000000" points="359.8906,-560 359.8906,-598 523.8906,-598 523.8906,-560 359.8906,-560"/>
<text text-anchor="start" x="370.8906" y="-574.4" font-family="Helvetica Neue" font-size="14.00" fill="#333333">updated_at (datetime)</text>
</g>
<!-- appmodelsmovimentacao&#45;&gt;appmodelsprodutocomposto -->
<g id="edge1" class="edge">
<title>appmodelsmovimentacao:id_produto_composto-&gt;appmodelsprodutocomposto:id</title>
<path fill="none" stroke="#d62828" stroke-width="1.8" d="M212,-477C212,-477 338.7527,-727.2647 357.5676,-764.4134"/>
<polygon fill="#d62828" stroke="#d62828" stroke-width="1.8" points="363.8993,-765.8487 354.9782,-770.3671 354.0745,-768.5829 362.9956,-764.0645 363.8993,-765.8487"/>
<polyline fill="none" stroke="#d62828" stroke-width="1.8" points="359.8906,-769 357.6314,-764.5395 "/>
<text text-anchor="middle" x="285.9453" y="-627.2" font-family="Helvetica Neue" font-size="14.00" fill="#000000"> </text>
<text text-anchor="middle" x="229.1576" y="-608.1067" font-family="Helvetica Neue" font-size="14.00" fill="#000000">HasOne</text>
<text text-anchor="middle" x="229.1576" y="-591.3067" font-family="Helvetica Neue" font-size="14.00" fill="#000000">produtoComposto</text>
</g>
<!-- appmodelsprodutosimples -->
<g id="node3" class="node">
<title>appmodelsprodutosimples</title>
<polygon fill="none" stroke="#000000" points="1197.6718,-583 1033.6718,-583 1033.6718,-279 1197.6718,-279 1197.6718,-583"/>
<polygon fill="#d3d3d3" stroke="transparent" points="1033.6718,-545 1033.6718,-583 1197.6718,-583 1197.6718,-545 1033.6718,-545"/>
<polygon fill="none" stroke="#000000" points="1033.6718,-545 1033.6718,-583 1197.6718,-583 1197.6718,-545 1033.6718,-545"/>
<text text-anchor="start" x="1066.2749" y="-559.4" font-family="Helvetica Neue" font-size="14.00" fill="#333333">ProdutoSimples</text>
<polygon fill="#ffffff" stroke="transparent" points="1033.6718,-507 1033.6718,-545 1197.6718,-545 1197.6718,-507 1033.6718,-507"/>
<polygon fill="none" stroke="#000000" points="1033.6718,-507 1033.6718,-545 1197.6718,-545 1197.6718,-507 1033.6718,-507"/>
<text text-anchor="start" x="1044.6718" y="-521.4" font-family="Helvetica Neue" font-size="14.00" fill="#333333">id (integer)</text>
<polygon fill="#ffffff" stroke="transparent" points="1033.6718,-469 1033.6718,-507 1197.6718,-507 1197.6718,-469 1033.6718,-469"/>
<polygon fill="none" stroke="#000000" points="1033.6718,-469 1033.6718,-507 1197.6718,-507 1197.6718,-469 1033.6718,-469"/>
<text text-anchor="start" x="1044.6718" y="-483.4" font-family="Helvetica Neue" font-size="14.00" fill="#333333">ativo (boolean)</text>
<polygon fill="#ffffff" stroke="transparent" points="1033.6718,-431 1033.6718,-469 1197.6718,-469 1197.6718,-431 1033.6718,-431"/>
<polygon fill="none" stroke="#000000" points="1033.6718,-431 1033.6718,-469 1197.6718,-469 1197.6718,-431 1033.6718,-431"/>
<text text-anchor="start" x="1044.6718" y="-445.4" font-family="Helvetica Neue" font-size="14.00" fill="#333333">nome (string)</text>
<polygon fill="#ffffff" stroke="transparent" points="1033.6718,-393 1033.6718,-431 1197.6718,-431 1197.6718,-393 1033.6718,-393"/>
<polygon fill="none" stroke="#000000" points="1033.6718,-393 1033.6718,-431 1197.6718,-431 1197.6718,-393 1033.6718,-393"/>
<text text-anchor="start" x="1044.6718" y="-407.4" font-family="Helvetica Neue" font-size="14.00" fill="#333333">preco_custo (decimal)</text>
<polygon fill="#ffffff" stroke="transparent" points="1033.6718,-355 1033.6718,-393 1197.6718,-393 1197.6718,-355 1033.6718,-355"/>
<polygon fill="none" stroke="#000000" points="1033.6718,-355 1033.6718,-393 1197.6718,-393 1197.6718,-355 1033.6718,-355"/>
<text text-anchor="start" x="1044.4944" y="-369.4" font-family="Helvetica Neue" font-size="14.00" fill="#333333">preco_venda (decimal)</text>
<polygon fill="#ffffff" stroke="transparent" points="1033.6718,-317 1033.6718,-355 1197.6718,-355 1197.6718,-317 1033.6718,-317"/>
<polygon fill="none" stroke="#000000" points="1033.6718,-317 1033.6718,-355 1197.6718,-355 1197.6718,-317 1033.6718,-317"/>
<text text-anchor="start" x="1044.6718" y="-331.4" font-family="Helvetica Neue" font-size="14.00" fill="#333333">created_at (datetime)</text>
<polygon fill="#ffffff" stroke="transparent" points="1033.6718,-279 1033.6718,-317 1197.6718,-317 1197.6718,-279 1033.6718,-279"/>
<polygon fill="none" stroke="#000000" points="1033.6718,-279 1033.6718,-317 1197.6718,-317 1197.6718,-279 1033.6718,-279"/>
<text text-anchor="start" x="1044.6718" y="-293.4" font-family="Helvetica Neue" font-size="14.00" fill="#333333">updated_at (datetime)</text>
</g>
<!-- appmodelsmovimentacao&#45;&gt;appmodelsprodutosimples -->
<g id="edge2" class="edge">
<title>appmodelsmovimentacao:id_produto_simples-&gt;appmodelsprodutosimples:id</title>
<path fill="none" stroke="#d62828" stroke-width="1.8" d="M212,-439C212,-439 958.4455,-518.0349 1028.4248,-525.4444"/>
<polygon fill="#d62828" stroke="#d62828" stroke-width="1.8" points="1033.2039,-520.9225 1032.1508,-530.8669 1030.1619,-530.6563 1031.215,-520.7119 1033.2039,-520.9225"/>
<polyline fill="none" stroke="#d62828" stroke-width="1.8" points="1033.6718,-526 1028.6996,-525.4734 "/>
<text text-anchor="middle" x="597.8359" y="-483.2" font-family="Helvetica Neue" font-size="14.00" fill="#000000"> </text>
<text text-anchor="middle" x="668.8323" y="-469.6222" font-family="Helvetica Neue" font-size="14.00" fill="#000000">HasOne</text>
<text text-anchor="middle" x="668.8323" y="-452.8222" font-family="Helvetica Neue" font-size="14.00" fill="#000000">produtoSimples</text>
</g>
<!-- appmodelsrequisicao -->
<g id="node4" class="node">
<title>appmodelsrequisicao</title>
<polygon fill="none" stroke="#000000" points="520.8906,-342 362.8906,-342 362.8906,-114 520.8906,-114 520.8906,-342"/>
<polygon fill="#d3d3d3" stroke="transparent" points="362.8906,-304 362.8906,-342 520.8906,-342 520.8906,-304 362.8906,-304"/>
<polygon fill="none" stroke="#000000" points="362.8906,-304 362.8906,-342 520.8906,-342 520.8906,-304 362.8906,-304"/>
<text text-anchor="start" x="407.2742" y="-318.4" font-family="Helvetica Neue" font-size="14.00" fill="#333333">Requisicao</text>
<polygon fill="#ffffff" stroke="transparent" points="362.8906,-266 362.8906,-304 520.8906,-304 520.8906,-266 362.8906,-266"/>
<polygon fill="none" stroke="#000000" points="362.8906,-266 362.8906,-304 520.8906,-304 520.8906,-266 362.8906,-266"/>
<text text-anchor="start" x="373.8906" y="-280.4" font-family="Helvetica Neue" font-size="14.00" fill="#333333">id (integer)</text>
<polygon fill="#ffffff" stroke="transparent" points="362.8906,-228 362.8906,-266 520.8906,-266 520.8906,-228 362.8906,-228"/>
<polygon fill="none" stroke="#000000" points="362.8906,-228 362.8906,-266 520.8906,-266 520.8906,-228 362.8906,-228"/>
<text text-anchor="start" x="373.8906" y="-242.4" font-family="Helvetica Neue" font-size="14.00" fill="#333333">id_user (integer)</text>
<polygon fill="#ffffff" stroke="transparent" points="362.8906,-190 362.8906,-228 520.8906,-228 520.8906,-190 362.8906,-190"/>
<polygon fill="none" stroke="#000000" points="362.8906,-190 362.8906,-228 520.8906,-228 520.8906,-190 362.8906,-190"/>
<text text-anchor="start" x="373.8906" y="-204.4" font-family="Helvetica Neue" font-size="14.00" fill="#333333">tipo (string)</text>
<polygon fill="#ffffff" stroke="transparent" points="362.8906,-152 362.8906,-190 520.8906,-190 520.8906,-152 362.8906,-152"/>
<polygon fill="none" stroke="#000000" points="362.8906,-152 362.8906,-190 520.8906,-190 520.8906,-152 362.8906,-152"/>
<text text-anchor="start" x="373.8906" y="-166.4" font-family="Helvetica Neue" font-size="14.00" fill="#333333">created_at (datetime)</text>
<polygon fill="#ffffff" stroke="transparent" points="362.8906,-114 362.8906,-152 520.8906,-152 520.8906,-114 362.8906,-114"/>
<polygon fill="none" stroke="#000000" points="362.8906,-114 362.8906,-152 520.8906,-152 520.8906,-114 362.8906,-114"/>
<text text-anchor="start" x="373.4243" y="-128.4" font-family="Helvetica Neue" font-size="14.00" fill="#333333">updated_at (datetime)</text>
</g>
<!-- appmodelsmovimentacao&#45;&gt;appmodelsrequisicao -->
<g id="edge3" class="edge">
<title>appmodelsmovimentacao:id_requisicao-&gt;appmodelsrequisicao:id</title>
<path fill="none" stroke="#d62828" stroke-width="1.8" d="M212,-401C212,-401 334.8588,-306.55 358.8546,-288.1027"/>
<polygon fill="#d62828" stroke="#d62828" stroke-width="1.8" points="359.0504,-281.6455 365.1452,-289.5735 363.5596,-290.7925 357.4647,-282.8644 359.0504,-281.6455"/>
<polyline fill="none" stroke="#d62828" stroke-width="1.8" points="362.8906,-285 358.9266,-288.0474 "/>
<text text-anchor="middle" x="285.9453" y="-347.2" font-family="Helvetica Neue" font-size="14.00" fill="#000000"> </text>
<text text-anchor="middle" x="253.5339" y="-365.5514" font-family="Helvetica Neue" font-size="14.00" fill="#000000">HasOne</text>
<text text-anchor="middle" x="253.5339" y="-348.7514" font-family="Helvetica Neue" font-size="14.00" fill="#000000">requisicao</text>
</g>
<!-- appmodelsprodutocompostocomponente -->
<g id="node5" class="node">
<title>appmodelsprodutocompostocomponente</title>
<polygon fill="none" stroke="#000000" points="885.7812,-770 671.7812,-770 671.7812,-580 885.7812,-580 885.7812,-770"/>
<polygon fill="#d3d3d3" stroke="transparent" points="671.7812,-732 671.7812,-770 885.7812,-770 885.7812,-732 671.7812,-732"/>
<polygon fill="none" stroke="#000000" points="671.7812,-732 671.7812,-770 885.7812,-770 885.7812,-732 671.7812,-732"/>
<text text-anchor="start" x="682.31" y="-746.4" font-family="Helvetica Neue" font-size="14.00" fill="#333333">ProdutoCompostoComponente</text>
<polygon fill="#ffffff" stroke="transparent" points="671.7812,-694 671.7812,-732 885.7812,-732 885.7812,-694 671.7812,-694"/>
<polygon fill="none" stroke="#000000" points="671.7812,-694 671.7812,-732 885.7812,-732 885.7812,-694 671.7812,-694"/>
<text text-anchor="start" x="682.7812" y="-708.4" font-family="Helvetica Neue" font-size="14.00" fill="#333333">id (integer)</text>
<polygon fill="#ffffff" stroke="transparent" points="671.7812,-656 671.7812,-694 885.7812,-694 885.7812,-656 671.7812,-656"/>
<polygon fill="none" stroke="#000000" points="671.7812,-656 671.7812,-694 885.7812,-694 885.7812,-656 671.7812,-656"/>
<text text-anchor="start" x="682.7812" y="-670.4" font-family="Helvetica Neue" font-size="14.00" fill="#333333">id_produto_composto (integer)</text>
<polygon fill="#ffffff" stroke="transparent" points="671.7812,-618 671.7812,-656 885.7812,-656 885.7812,-618 671.7812,-618"/>
<polygon fill="none" stroke="#000000" points="671.7812,-618 671.7812,-656 885.7812,-656 885.7812,-618 671.7812,-618"/>
<text text-anchor="start" x="682.7812" y="-632.4" font-family="Helvetica Neue" font-size="14.00" fill="#333333">id_produto_simples (integer)</text>
<polygon fill="#ffffff" stroke="transparent" points="671.7812,-580 671.7812,-618 885.7812,-618 885.7812,-580 671.7812,-580"/>
<polygon fill="none" stroke="#000000" points="671.7812,-580 671.7812,-618 885.7812,-618 885.7812,-580 671.7812,-580"/>
<text text-anchor="start" x="682.7812" y="-594.4" font-family="Helvetica Neue" font-size="14.00" fill="#333333">quantidade (integer)</text>
</g>
<!-- appmodelsprodutocomposto&#45;&gt;appmodelsprodutocompostocomponente -->
<g id="edge4" class="edge">
<title>appmodelsprodutocomposto:id-&gt;appmodelsprodutocompostocomponente:id_produto_composto</title>
<path fill="none" stroke="#fcbf49" stroke-width="1.8" d="M523.8906,-769C523.8906,-769 631.1348,-700.8351 662.9729,-680.5986"/>
<polygon fill="#fcbf49" stroke="#fcbf49" stroke-width="1.8" points="663.3417,-680.3642 674.1951,-678.7978 667.5614,-677.6821 671.7812,-675 671.7812,-675 671.7812,-675 667.5614,-677.6821 669.3673,-671.2022 663.3417,-680.3642 663.3417,-680.3642"/>
<text text-anchor="middle" x="597.8359" y="-726.2" font-family="Helvetica Neue" font-size="14.00" fill="#000000"> </text>
<text text-anchor="middle" x="635.4464" y="-745.7993" font-family="Helvetica Neue" font-size="14.00" fill="#000000">HasMany</text>
<text text-anchor="middle" x="635.4464" y="-728.9993" font-family="Helvetica Neue" font-size="14.00" fill="#000000">componentes</text>
</g>
<!-- appmodelsrequisicao&#45;&gt;appmodelsmovimentacao -->
<g id="edge7" class="edge">
<title>appmodelsrequisicao:id-&gt;appmodelsmovimentacao:id_requisicao</title>
<path fill="none" stroke="#fcbf49" stroke-width="1.8" d="M362.8906,-285C362.8906,-285 284,-308.2 284,-308.2 284,-308.2 235.5503,-370.6463 218.1387,-393.0879"/>
<polygon fill="#fcbf49" stroke="#fcbf49" stroke-width="1.8" points="218.13,-393.0991 208.4446,-398.2415 215.065,-397.0496 212,-401 212,-401 212,-401 215.065,-397.0496 215.5554,-403.7585 218.13,-393.0991 218.13,-393.0991"/>
<text text-anchor="middle" x="285.9453" y="-312.2" font-family="Helvetica Neue" font-size="14.00" fill="#000000"> </text>
<text text-anchor="middle" x="227.2661" y="-305.5591" font-family="Helvetica Neue" font-size="14.00" fill="#000000">HasMany</text>
<text text-anchor="middle" x="227.2661" y="-288.7591" font-family="Helvetica Neue" font-size="14.00" fill="#000000">movimentacoes</text>
</g>
<!-- appuser -->
<g id="node6" class="node">
<title>appuser</title>
<polygon fill="none" stroke="#000000" points="866.2812,-304 691.2812,-304 691.2812,0 866.2812,0 866.2812,-304"/>
<polygon fill="#d3d3d3" stroke="transparent" points="691.7812,-266 691.7812,-304 866.7812,-304 866.7812,-266 691.7812,-266"/>
<polygon fill="none" stroke="#000000" points="691.7812,-266 691.7812,-304 866.7812,-304 866.7812,-266 691.7812,-266"/>
<text text-anchor="start" x="764.5063" y="-280.4" font-family="Helvetica Neue" font-size="14.00" fill="#333333">User</text>
<polygon fill="#ffffff" stroke="transparent" points="691.7812,-228 691.7812,-266 866.7812,-266 866.7812,-228 691.7812,-228"/>
<polygon fill="none" stroke="#000000" points="691.7812,-228 691.7812,-266 866.7812,-266 866.7812,-228 691.7812,-228"/>
<text text-anchor="start" x="702.7812" y="-242.4" font-family="Helvetica Neue" font-size="14.00" fill="#333333">id (integer)</text>
<polygon fill="#ffffff" stroke="transparent" points="691.7812,-190 691.7812,-228 866.7812,-228 866.7812,-190 691.7812,-190"/>
<polygon fill="none" stroke="#000000" points="691.7812,-190 691.7812,-228 866.7812,-228 866.7812,-190 691.7812,-190"/>
<text text-anchor="start" x="702.7812" y="-204.4" font-family="Helvetica Neue" font-size="14.00" fill="#333333">name (string)</text>
<polygon fill="#ffffff" stroke="transparent" points="691.7812,-152 691.7812,-190 866.7812,-190 866.7812,-152 691.7812,-152"/>
<polygon fill="none" stroke="#000000" points="691.7812,-152 691.7812,-190 866.7812,-190 866.7812,-152 691.7812,-152"/>
<text text-anchor="start" x="702.7812" y="-166.4" font-family="Helvetica Neue" font-size="14.00" fill="#333333">email (string)</text>
<polygon fill="#ffffff" stroke="transparent" points="691.7812,-114 691.7812,-152 866.7812,-152 866.7812,-114 691.7812,-114"/>
<polygon fill="none" stroke="#000000" points="691.7812,-114 691.7812,-152 866.7812,-152 866.7812,-114 691.7812,-114"/>
<text text-anchor="start" x="702.7812" y="-128.4" font-family="Helvetica Neue" font-size="14.00" fill="#333333">password (string)</text>
<polygon fill="#ffffff" stroke="transparent" points="691.7812,-76 691.7812,-114 866.7812,-114 866.7812,-76 691.7812,-76"/>
<polygon fill="none" stroke="#000000" points="691.7812,-76 691.7812,-114 866.7812,-114 866.7812,-76 691.7812,-76"/>
<text text-anchor="start" x="702.6669" y="-90.4" font-family="Helvetica Neue" font-size="14.00" fill="#333333">remember_token (string)</text>
<polygon fill="#ffffff" stroke="transparent" points="691.7812,-38 691.7812,-76 866.7812,-76 866.7812,-38 691.7812,-38"/>
<polygon fill="none" stroke="#000000" points="691.7812,-38 691.7812,-76 866.7812,-76 866.7812,-38 691.7812,-38"/>
<text text-anchor="start" x="702.7812" y="-52.4" font-family="Helvetica Neue" font-size="14.00" fill="#333333">created_at (datetime)</text>
<polygon fill="#ffffff" stroke="transparent" points="691.7812,0 691.7812,-38 866.7812,-38 866.7812,0 691.7812,0"/>
<polygon fill="none" stroke="#000000" points="691.7812,0 691.7812,-38 866.7812,-38 866.7812,0 691.7812,0"/>
<text text-anchor="start" x="702.7812" y="-14.4" font-family="Helvetica Neue" font-size="14.00" fill="#333333">updated_at (datetime)</text>
</g>
<!-- appmodelsrequisicao&#45;&gt;appuser -->
<g id="edge8" class="edge">
<title>appmodelsrequisicao:id_user-&gt;appuser:id</title>
<path fill="none" stroke="#d62828" stroke-width="1.8" d="M520.8906,-247C520.8906,-247 657.6349,-247 686.4794,-247"/>
<polygon fill="#d62828" stroke="#d62828" stroke-width="1.8" points="690.7811,-242 690.7813,-252 688.7813,-252.0001 688.7811,-242.0001 690.7811,-242"/>
<polyline fill="none" stroke="#d62828" stroke-width="1.8" points="691.7812,-247 686.7812,-247.0001 "/>
<text text-anchor="middle" x="597.8359" y="-251.2" font-family="Helvetica Neue" font-size="14.00" fill="#000000"> </text>
<text text-anchor="middle" x="576.0672" y="-234.4" font-family="Helvetica Neue" font-size="14.00" fill="#000000">HasOne</text>
<text text-anchor="middle" x="576.0672" y="-217.6" font-family="Helvetica Neue" font-size="14.00" fill="#000000">usuario</text>
</g>
<!-- appmodelsprodutocompostocomponente&#45;&gt;appmodelsprodutocomposto -->
<g id="edge5" class="edge">
<title>appmodelsprodutocompostocomponente:id_produto_composto-&gt;appmodelsprodutocomposto:id</title>
<path fill="none" stroke="#d62828" stroke-width="1.8" d="M671.7812,-675C671.7812,-675 595.8906,-687.2 595.8906,-687.2 595.8906,-687.2 541.7456,-748.7148 527.3633,-765.0546"/>
<polygon fill="#d62828" stroke="#d62828" stroke-width="1.8" points="528.3045,-771.5529 520.7981,-764.9458 522.1195,-763.4445 529.626,-770.0516 528.3045,-771.5529"/>
<polyline fill="none" stroke="#d62828" stroke-width="1.8" points="523.8906,-769 527.1942,-765.2468 "/>
<text text-anchor="middle" x="597.8359" y="-691.2" font-family="Helvetica Neue" font-size="14.00" fill="#000000"> </text>
<text text-anchor="middle" x="642.6459" y="-684.6783" font-family="Helvetica Neue" font-size="14.00" fill="#000000">HasOne</text>
<text text-anchor="middle" x="642.6459" y="-667.8783" font-family="Helvetica Neue" font-size="14.00" fill="#000000">produtoComposto</text>
</g>
<!-- appmodelsprodutocompostocomponente&#45;&gt;appmodelsprodutosimples -->
<g id="edge6" class="edge">
<title>appmodelsprodutocompostocomponente:id_produto_simples-&gt;appmodelsprodutosimples:id</title>
<path fill="none" stroke="#d62828" stroke-width="1.8" d="M885.7812,-637C885.7812,-637 1005.157,-547.4019 1029.4052,-529.2023"/>
<polygon fill="#d62828" stroke="#d62828" stroke-width="1.8" points="1029.8706,-522.6013 1035.8735,-530.5992 1034.2739,-531.7998 1028.271,-523.8019 1029.8706,-522.6013"/>
<polyline fill="none" stroke="#d62828" stroke-width="1.8" points="1033.6718,-526 1029.6728,-529.0015 "/>
<text text-anchor="middle" x="959.7265" y="-585.2" font-family="Helvetica Neue" font-size="14.00" fill="#000000"> </text>
<text text-anchor="middle" x="1006.2131" y="-604.1012" font-family="Helvetica Neue" font-size="14.00" fill="#000000">HasOne</text>
<text text-anchor="middle" x="1006.2131" y="-587.3012" font-family="Helvetica Neue" font-size="14.00" fill="#000000">produtoSimples</text>
</g>
</g>
</svg>